<svg width="105" height="56" viewBox="0 0 105 56" fill="none" xmlns="http://www.w3.org/2000/svg">
<rect x="0.5" y="0.5" width="104" height="55" rx="7.5" fill="white" stroke="#E8ECF4"/>
<g clip-path="url(#clip0_409_1521)">
<path d="M44.6685 40.5134C44.1559 40.1724 43.7016 39.751 43.323 39.2654C42.9066 38.7642 42.5208 38.2384 42.1677 37.6908C41.339 36.4767 40.6891 35.1499 40.238 33.751C39.696 32.126 39.4336 30.5684 39.4336 29.045C39.4336 27.3436 39.8017 25.8583 40.5215 24.6103C41.0552 23.6349 41.8397 22.8197 42.7941 22.2492C43.719 21.6747 44.7817 21.3604 45.8702 21.3392C46.2513 21.3392 46.6616 21.3945 47.0971 21.5001C47.4099 21.5886 47.791 21.7284 48.2565 21.9023C48.8488 22.1306 49.1747 22.2703 49.2852 22.3045C49.6321 22.4312 49.9238 22.4865 50.1529 22.4865C50.3268 22.4865 50.5722 22.4312 50.8508 22.3467C51.0077 22.2915 51.3034 22.194 51.7267 22.0128C52.146 21.86 52.4758 21.7292 52.7383 21.6317C53.1405 21.5131 53.5297 21.4034 53.8766 21.3481C54.2879 21.2833 54.7053 21.2661 55.1205 21.297C55.8401 21.344 56.5488 21.4965 57.2241 21.7495C58.3283 22.194 59.2212 22.8878 59.8858 23.8742C59.6049 24.0473 59.3413 24.2471 59.0985 24.4706C58.5701 24.9391 58.12 25.489 57.7652 26.0996C57.3015 26.9341 57.0611 27.8742 57.0673 28.8288C57.0843 30.0013 57.385 31.034 57.9773 31.9269C58.4127 32.5887 58.9787 33.1546 59.6405 33.5901C59.9793 33.8184 60.271 33.9752 60.5505 34.0808C60.4197 34.4871 60.2799 34.8803 60.115 35.2703C59.7409 36.1449 59.2875 36.9834 58.7605 37.7753C58.2909 38.457 57.9228 38.9648 57.6433 39.3028C57.2078 39.8187 56.7886 40.2128 56.3653 40.4874C55.8997 40.7961 55.3497 40.9611 54.7907 40.9611C54.4121 40.9756 54.0336 40.9298 53.6694 40.8254C53.3566 40.7198 53.047 40.6052 52.7423 40.4744C52.4256 40.3289 52.099 40.2059 51.7649 40.1063C50.9392 39.8942 50.0734 39.8928 49.247 40.1023C48.9082 40.1998 48.5823 40.3135 48.2606 40.4533C47.808 40.6434 47.5074 40.771 47.3335 40.8254C46.9866 40.927 46.6267 40.9903 46.2627 41.0115C45.6996 41.0115 45.1747 40.8506 44.6547 40.5248L44.6685 40.5134ZM52.0948 20.5137C51.3587 20.8818 50.6558 21.0386 49.9579 20.9874C49.8482 20.2846 49.9579 19.5655 50.2496 18.7782C50.4979 18.1112 50.8648 17.4946 51.3327 16.9582C51.8267 16.3935 52.4261 15.9307 53.0974 15.5956C53.8124 15.2276 54.4941 15.0285 55.1457 14.9993C55.2302 15.7354 55.1457 16.4593 54.8752 17.2418C54.6248 17.9334 54.2585 18.5775 53.7921 19.1463C53.316 19.7117 52.7318 20.1763 52.0737 20.5129L52.0948 20.5137Z" fill="black"/>
</g>
<defs>
<clipPath id="clip0_409_1521">
<rect width="26" height="26" fill="white" transform="translate(37 15)"/>
</clipPath>
</defs>
</svg>
