<svg width="41" height="41" viewBox="0 0 41 41" fill="none" xmlns="http://www.w3.org/2000/svg">
<rect x="0.5" y="0.5" width="40" height="40" rx="11.5" fill="white" stroke="#E8ECF4"/>
<path d="M23.1578 13.3671C23.0659 13.275 22.9567 13.2019 22.8365 13.152C22.7162 13.1021 22.5873 13.0764 22.4572 13.0764C22.327 13.0764 22.1981 13.1021 22.0779 13.152C21.9577 13.2019 21.8485 13.275 21.7566 13.3671L15.1778 19.9459C15.1044 20.0191 15.0462 20.1061 15.0065 20.2019C14.9667 20.2977 14.9463 20.4003 14.9463 20.504C14.9463 20.6077 14.9667 20.7104 15.0065 20.8061C15.0462 20.9019 15.1044 20.9889 15.1778 21.0621L21.7566 27.6409C22.1445 28.0288 22.7699 28.0288 23.1578 27.6409C23.5457 27.253 23.5457 26.6276 23.1578 26.2396L17.4261 20.5001L23.1657 14.7605C23.5457 14.3805 23.5457 13.7471 23.1578 13.3671Z" fill="#1E232C" stroke="#1E232C" stroke-width="0.2"/>
</svg>
