<svg width="36" height="36" viewBox="0 0 36 36" fill="none" xmlns="http://www.w3.org/2000/svg">
<g filter="url(#filter0_b_226_801)">
<rect width="36" height="36" rx="10" fill="#EFF6FF"/>
<g clip-path="url(#clip0_226_801)">
<path d="M23.8407 11.497C23.5332 11.497 23.2384 11.6155 23.0209 11.8265C22.8035 12.0375 22.6814 12.3236 22.6814 12.622V16.753H21.9116V10.372C21.9116 10.0736 21.7895 9.78748 21.5721 9.5765C21.3547 9.36553 21.0598 9.247 20.7523 9.247C20.4449 9.247 20.15 9.36553 19.9326 9.5765C19.7152 9.78748 19.593 10.0736 19.593 10.372V16.753H18.814V9.625C18.814 9.32663 18.6918 9.04048 18.4744 8.8295C18.257 8.61853 17.9621 8.5 17.6547 8.5C17.3472 8.5 17.0523 8.61853 16.8349 8.8295C16.6175 9.04048 16.4954 9.32663 16.4954 9.625V16.753H15.7256V11.497C15.7256 11.1986 15.6034 10.9125 15.386 10.7015C15.1686 10.4905 14.8738 10.372 14.5663 10.372C14.2588 10.372 13.9639 10.4905 13.7465 10.7015C13.5291 10.9125 13.407 11.1986 13.407 11.497V20.434L10.0775 18.634C9.93702 18.5531 9.77706 18.5096 9.61375 18.508C9.38831 18.5083 9.17071 18.5883 9.00164 18.733L8 19.633L14.0655 25.6C14.3508 25.8856 14.6924 26.1125 15.0701 26.2671C15.4477 26.4217 15.8536 26.5009 16.2635 26.5H21.9116C22.7307 26.5 23.5163 26.1842 24.0954 25.6222C24.6746 25.0601 25 24.2978 25 23.503V12.622C25 12.3236 24.8779 12.0375 24.6604 11.8265C24.443 11.6155 24.1482 11.497 23.8407 11.497ZM15.7256 20.2C15.5422 20.2 15.3628 20.1472 15.2103 20.0483C15.0578 19.9494 14.9389 19.8089 14.8687 19.6444C14.7985 19.48 14.7802 19.299 14.816 19.1244C14.8518 18.9498 14.9401 18.7895 15.0698 18.6636C15.1995 18.5377 15.3647 18.452 15.5447 18.4173C15.7246 18.3826 15.911 18.4004 16.0805 18.4685C16.25 18.5366 16.3948 18.652 16.4967 18.8C16.5986 18.948 16.653 19.122 16.653 19.3C16.653 19.5387 16.5553 19.7676 16.3814 19.9364C16.2075 20.1052 15.9716 20.2 15.7256 20.2ZM17.5805 22.9C17.397 22.9 17.2177 22.8472 17.0652 22.7483C16.9127 22.6494 16.7938 22.5089 16.7236 22.3444C16.6534 22.18 16.6351 21.999 16.6708 21.8244C16.7066 21.6498 16.795 21.4895 16.9247 21.3636C17.0544 21.2377 17.2196 21.152 17.3995 21.1173C17.5794 21.0826 17.7659 21.1004 17.9354 21.1685C18.1049 21.2366 18.2497 21.352 18.3516 21.5C18.4535 21.648 18.5079 21.822 18.5079 22C18.5079 22.2387 18.4102 22.4676 18.2363 22.6364C18.0623 22.8052 17.8264 22.9 17.5805 22.9ZM22.2177 21.1C22.0342 21.1 21.8549 21.0472 21.7024 20.9483C21.5499 20.8494 21.431 20.7089 21.3608 20.5444C21.2906 20.38 21.2723 20.199 21.3081 20.0244C21.3438 19.8498 21.4322 19.6895 21.5619 19.5636C21.6916 19.4377 21.8568 19.352 22.0367 19.3173C22.2166 19.2826 22.4031 19.3004 22.5726 19.3685C22.7421 19.4366 22.8869 19.552 22.9888 19.7C23.0907 19.848 23.1451 20.022 23.1451 20.2C23.1451 20.4387 23.0474 20.6676 22.8735 20.8364C22.6995 21.0052 22.4636 21.1 22.2177 21.1ZM21.2902 23.8C21.1068 23.8 20.9275 23.7472 20.775 23.6483C20.6225 23.5494 20.5036 23.4089 20.4334 23.2444C20.3632 23.08 20.3448 22.899 20.3806 22.7244C20.4164 22.5498 20.5047 22.3895 20.6344 22.2636C20.7641 22.1377 20.9294 22.052 21.1093 22.0173C21.2892 21.9826 21.4757 22.0004 21.6452 22.0685C21.8146 22.1366 21.9595 22.252 22.0614 22.4C22.1633 22.548 22.2177 22.722 22.2177 22.9C22.2177 23.1387 22.12 23.3676 21.946 23.5364C21.7721 23.7052 21.5362 23.8 21.2902 23.8ZM19.4354 20.2C19.2519 20.2 19.0726 20.1472 18.9201 20.0483C18.7676 19.9494 18.6487 19.8089 18.5785 19.6444C18.5083 19.48 18.4899 19.299 18.5257 19.1244C18.5615 18.9498 18.6498 18.7895 18.7796 18.6636C18.9093 18.5377 19.0745 18.452 19.2544 18.4173C19.4343 18.3826 19.6208 18.4004 19.7903 18.4685C19.9597 18.5366 20.1046 18.652 20.2065 18.8C20.3084 18.948 20.3628 19.122 20.3628 19.3C20.3628 19.5387 20.2651 19.7676 20.0912 19.9364C19.9172 20.1052 19.6813 20.2 19.4354 20.2Z" fill="#2247AF"/>
</g>
</g>
<defs>
<filter id="filter0_b_226_801" x="-5" y="-5" width="46" height="46" filterUnits="userSpaceOnUse" color-interpolation-filters="sRGB">
<feFlood flood-opacity="0" result="BackgroundImageFix"/>
<feGaussianBlur in="BackgroundImage" stdDeviation="2.5"/>
<feComposite in2="SourceAlpha" operator="in" result="effect1_backgroundBlur_226_801"/>
<feBlend mode="normal" in="SourceGraphic" in2="effect1_backgroundBlur_226_801" result="shape"/>
</filter>
<clipPath id="clip0_226_801">
<rect width="19" height="19" fill="white" transform="translate(8.5 8.5)"/>
</clipPath>
</defs>
</svg>
