<svg width="17" height="18" viewBox="0 0 17 18" fill="none" xmlns="http://www.w3.org/2000/svg">
<path d="M16.75 14.7857C16.75 15.6382 16.449 16.4558 15.9132 17.0586C15.3773 17.6614 14.6506 18 13.8929 18H3.60714C2.84938 18 2.12266 17.6614 1.58684 17.0586C1.05102 16.4558 0.75 15.6382 0.75 14.7857V3.21429C0.75 2.3618 1.05102 1.54424 1.58684 0.941442C2.12266 0.338647 2.84938 0 3.60714 0H13.8929C14.6506 0 15.3773 0.338647 15.9132 0.941442C16.449 1.54424 16.75 2.3618 16.75 3.21429V14.7857ZM13.3214 4.5C13.3215 4.34954 13.2746 4.20383 13.189 4.08824C13.1034 3.97265 12.9844 3.89451 12.8529 3.86743L12.75 3.85714H4.75L4.64714 3.86743C4.51539 3.89427 4.3962 3.9723 4.31037 4.08791C4.22454 4.20352 4.17752 4.34937 4.17752 4.5C4.17752 4.65063 4.22454 4.79648 4.31037 4.91209C4.3962 5.0277 4.51539 5.10573 4.64714 5.13257L4.75 5.14286H12.75L12.8529 5.13257C12.9844 5.10549 13.1034 5.02735 13.189 4.91176C13.2746 4.79617 13.3215 4.65046 13.3214 4.5ZM13.3214 9C13.3215 8.84954 13.2746 8.70383 13.189 8.58824C13.1034 8.47265 12.9844 8.39451 12.8529 8.36743L12.75 8.35714H4.75L4.64714 8.36743C4.51539 8.39427 4.3962 8.4723 4.31037 8.58791C4.22454 8.70352 4.17752 8.84937 4.17752 9C4.17752 9.15063 4.22454 9.29648 4.31037 9.41209C4.3962 9.5277 4.51539 9.60573 4.64714 9.63257L4.75 9.64286H12.75L12.8529 9.63257C12.9844 9.60549 13.1034 9.52735 13.189 9.41176C13.2746 9.29617 13.3215 9.15046 13.3214 9V9ZM13.3214 13.5C13.3215 13.3495 13.2746 13.2038 13.189 13.0882C13.1034 12.9727 12.9844 12.8945 12.8529 12.8674L12.75 12.8571H4.75L4.64714 12.8674C4.51539 12.8943 4.3962 12.9723 4.31037 13.0879C4.22454 13.2035 4.17752 13.3494 4.17752 13.5C4.17752 13.6506 4.22454 13.7965 4.31037 13.9121C4.3962 14.0277 4.51539 14.1057 4.64714 14.1326L4.75 14.1429H12.75L12.8529 14.1326C12.9844 14.1055 13.1034 14.0273 13.189 13.9118C13.2746 13.7962 13.3215 13.6505 13.3214 13.5Z" fill="#7B6F72"/>
</svg>
