<svg width="32" height="32" viewBox="0 0 32 32" fill="none" xmlns="http://www.w3.org/2000/svg">
<g filter="url(#filter0_b_226_791)">
<rect width="32" height="32" rx="10" fill="#EFF6FF"/>
<path d="M8 25.4931H17.62C18.1971 25.4934 18.7674 25.3687 19.2916 25.1275C19.8159 24.8863 20.2817 24.5345 20.657 24.0961L25.759 18.1441C25.8658 18.0197 25.9404 17.8709 25.9762 17.7108C26.012 17.5508 26.0079 17.3844 25.9642 17.2263C25.9206 17.0683 25.8387 16.9234 25.7258 16.8044C25.6129 16.6854 25.4726 16.596 25.317 16.5441L23.349 15.8881C22.8734 15.7335 22.3669 15.6985 21.8745 15.7862C21.3821 15.874 20.919 16.0817 20.526 16.3911L17.341 18.9381L16.724 17.7031C16.3935 17.0374 15.8831 16.4775 15.2507 16.0869C14.6184 15.6963 13.8893 15.4906 13.146 15.4931H8C6.897 15.4931 6 16.3901 6 17.4931V23.4931C6 24.5961 6.897 25.4931 8 25.4931ZM8 17.4931H13.146C13.909 17.4931 14.594 17.9161 14.935 18.5981L15.382 19.4931H11V21.4931H17.014C17.1679 21.491 17.3191 21.4534 17.456 21.3831L17.459 21.3821L17.463 21.3801H17.466L17.468 21.3791H17.472L17.473 21.3781C17.484 21.3811 17.476 21.3771 17.476 21.3771C17.488 21.3771 17.478 21.3761 17.478 21.3761H17.479L17.481 21.3751L17.484 21.3741L17.486 21.3731L17.488 21.3721L17.491 21.3711L17.493 21.3701L17.495 21.3691L17.498 21.3671L17.5 21.3661L17.502 21.3651L17.505 21.3641L17.507 21.3631H17.508L17.51 21.3621H17.511L17.513 21.3611L17.515 21.3601C17.526 21.3591 17.518 21.3591 17.518 21.3591L17.52 21.3581C17.5585 21.3348 17.5953 21.3088 17.63 21.2801L21.776 17.9631C22.037 17.7551 22.399 17.6901 22.716 17.7961L23.273 17.9821L19.14 22.8051C18.9499 23.021 18.716 23.1939 18.454 23.3125C18.1919 23.4312 17.9077 23.4927 17.62 23.4931H8V17.4931V17.4931ZM17.761 6.81908C17.3 7.32508 15 9.95008 15 11.9931C15 13.9231 16.57 15.4931 18.5 15.4931C20.43 15.4931 22 13.9231 22 11.9931C22 9.95008 19.7 7.32508 19.239 6.81908C18.86 6.40308 18.14 6.40308 17.761 6.81908V6.81908ZM20 11.9931C20 12.8201 19.327 13.4931 18.5 13.4931C17.673 13.4931 17 12.8201 17 11.9931C17 11.2851 17.738 10.0591 18.5 9.05908C19.262 10.0591 20 11.2851 20 11.9931Z" fill="#2247AF"/>
</g>
<defs>
<filter id="filter0_b_226_791" x="-5" y="-5" width="42" height="42" filterUnits="userSpaceOnUse" color-interpolation-filters="sRGB">
<feFlood flood-opacity="0" result="BackgroundImageFix"/>
<feGaussianBlur in="BackgroundImage" stdDeviation="2.5"/>
<feComposite in2="SourceAlpha" operator="in" result="effect1_backgroundBlur_226_791"/>
<feBlend mode="normal" in="SourceGraphic" in2="effect1_backgroundBlur_226_791" result="shape"/>
</filter>
</defs>
</svg>
