<svg width="51" height="51" viewBox="0 0 51 51" fill="none" xmlns="http://www.w3.org/2000/svg">
<rect x="0.729492" width="50.2707" height="50.2707" rx="13.0331" fill="url(#paint0_linear_259_896)"/>
<path d="M22.5094 21.0293C22.1891 21.0293 21.9024 21.0926 21.6492 21.2192C21.4034 21.3458 21.1949 21.5283 21.0236 21.7666C20.8523 21.9975 20.722 22.2805 20.6326 22.6156C20.5507 22.9508 20.5097 23.3269 20.5097 23.7439C20.5097 24.3099 20.5768 24.794 20.7108 25.1962C20.8523 25.5909 21.072 25.8925 21.3699 26.1011C21.6678 26.3096 22.0476 26.4138 22.5094 26.4138C22.8371 26.4138 23.161 26.3766 23.4813 26.3021C23.809 26.2277 24.1627 26.1234 24.5426 25.9893V27.4081C24.1925 27.5496 23.8462 27.6539 23.5036 27.7209C23.161 27.7879 22.7775 27.8214 22.353 27.8214C21.5338 27.8214 20.856 27.6539 20.3198 27.3187C19.791 26.9761 19.4 26.4995 19.1468 25.8888C18.8936 25.2707 18.767 24.552 18.767 23.7327C18.767 23.1295 18.8489 22.5784 19.0128 22.0794C19.1766 21.573 19.4149 21.1373 19.7277 20.7724C20.048 20.4074 20.439 20.1244 20.9007 19.9233C21.3699 19.7223 21.9061 19.6217 22.5094 19.6217C22.9041 19.6217 23.2988 19.6738 23.6935 19.7781C24.0957 19.8749 24.4793 20.009 24.8442 20.1803L24.2968 21.5543C23.9989 21.4128 23.6973 21.29 23.3919 21.1857C23.094 21.0814 22.7998 21.0293 22.5094 21.0293ZM33.7892 21.6102V27.7097H32.2364V24.7158C32.2364 24.4179 32.2401 24.1275 32.2476 23.8445C32.2625 23.5615 32.2811 23.3008 32.3034 23.0625H32.2699L30.5831 27.7097H29.3319L27.6227 23.0513H27.578C27.6078 23.2971 27.6264 23.5615 27.6339 23.8445C27.6488 24.12 27.6562 24.4254 27.6562 24.7605V27.7097H26.1034V21.6102H28.4605L29.9798 25.7436L31.5215 21.6102H33.7892Z" fill="#2247AF"/>
<path d="M22.5094 21.0293C22.1891 21.0293 21.9024 21.0926 21.6492 21.2192C21.4034 21.3458 21.1949 21.5283 21.0236 21.7666C20.8523 21.9975 20.722 22.2805 20.6326 22.6156C20.5507 22.9508 20.5097 23.3269 20.5097 23.7439C20.5097 24.3099 20.5768 24.794 20.7108 25.1962C20.8523 25.5909 21.072 25.8925 21.3699 26.1011C21.6678 26.3096 22.0476 26.4138 22.5094 26.4138C22.8371 26.4138 23.161 26.3766 23.4813 26.3021C23.809 26.2277 24.1627 26.1234 24.5426 25.9893V27.4081C24.1925 27.5496 23.8462 27.6539 23.5036 27.7209C23.161 27.7879 22.7775 27.8214 22.353 27.8214C21.5338 27.8214 20.856 27.6539 20.3198 27.3187C19.791 26.9761 19.4 26.4995 19.1468 25.8888C18.8936 25.2707 18.767 24.552 18.767 23.7327C18.767 23.1295 18.8489 22.5784 19.0128 22.0794C19.1766 21.573 19.4149 21.1373 19.7277 20.7724C20.048 20.4074 20.439 20.1244 20.9007 19.9233C21.3699 19.7223 21.9061 19.6217 22.5094 19.6217C22.9041 19.6217 23.2988 19.6738 23.6935 19.7781C24.0957 19.8749 24.4793 20.009 24.8442 20.1803L24.2968 21.5543C23.9989 21.4128 23.6973 21.29 23.3919 21.1857C23.094 21.0814 22.7998 21.0293 22.5094 21.0293ZM33.7892 21.6102V27.7097H32.2364V24.7158C32.2364 24.4179 32.2401 24.1275 32.2476 23.8445C32.2625 23.5615 32.2811 23.3008 32.3034 23.0625H32.2699L30.5831 27.7097H29.3319L27.6227 23.0513H27.578C27.6078 23.2971 27.6264 23.5615 27.6339 23.8445C27.6488 24.12 27.6562 24.4254 27.6562 24.7605V27.7097H26.1034V21.6102H28.4605L29.9798 25.7436L31.5215 21.6102H33.7892Z" fill="white"/>
<defs>
<linearGradient id="paint0_linear_259_896" x1="51.0002" y1="50.2707" x2="-16.0003" y2="45.0862" gradientUnits="userSpaceOnUse">
<stop stop-color="#133EB7"/>
<stop offset="1" stop-color="#4585D3"/>
</linearGradient>
</defs>
</svg>
