<svg width="32" height="32" viewBox="0 0 32 32" fill="none" xmlns="http://www.w3.org/2000/svg">
<g filter="url(#filter0_b_267_1233)">
<rect width="32" height="32" rx="10" fill="#EFF6FF"/>
<path d="M22 12.6667H24C24.2652 12.6667 24.5196 12.767 24.7071 12.9456C24.8946 13.1242 25 13.3665 25 13.619V25.0476C25 25.3002 24.8946 25.5424 24.7071 25.7211C24.5196 25.8997 24.2652 26 24 26H8C7.73478 26 7.48043 25.8997 7.29289 25.7211C7.10536 25.5424 7 25.3002 7 25.0476V13.619C7 13.3665 7.10536 13.1242 7.29289 12.9456C7.48043 12.767 7.73478 12.6667 8 12.6667H10V11.7143C10 10.1988 10.6321 8.74531 11.7574 7.67368C12.8826 6.60204 14.4087 6 16 6C17.5913 6 19.1174 6.60204 20.2426 7.67368C21.3679 8.74531 22 10.1988 22 11.7143V12.6667ZM20 12.6667V11.7143C20 10.7039 19.5786 9.73497 18.8284 9.02055C18.0783 8.30612 17.0609 7.90476 16 7.90476C14.9391 7.90476 13.9217 8.30612 13.1716 9.02055C12.4214 9.73497 12 10.7039 12 11.7143V12.6667H20ZM15 18.381V20.2857H17V18.381H15ZM11 18.381V20.2857H13V18.381H11ZM19 18.381V20.2857H21V18.381H19Z" fill="#2247AF"/>
</g>
<defs>
<filter id="filter0_b_267_1233" x="-5" y="-5" width="42" height="42" filterUnits="userSpaceOnUse" color-interpolation-filters="sRGB">
<feFlood flood-opacity="0" result="BackgroundImageFix"/>
<feGaussianBlur in="BackgroundImage" stdDeviation="2.5"/>
<feComposite in2="SourceAlpha" operator="in" result="effect1_backgroundBlur_267_1233"/>
<feBlend mode="normal" in="SourceGraphic" in2="effect1_backgroundBlur_267_1233" result="shape"/>
</filter>
</defs>
</svg>
