<svg width="36" height="36" viewBox="0 0 36 36" fill="none" xmlns="http://www.w3.org/2000/svg">
<g filter="url(#filter0_b_267_1241)">
<rect width="36" height="36" rx="10" fill="#EFF6FF"/>
<g clip-path="url(#clip0_267_1241)">
<path d="M27 17.4387C27 22.0992 22.9703 25.8773 18 25.8773C17.1086 25.8786 16.2209 25.7546 15.3596 25.5084C14.7026 25.8653 13.194 26.55 10.656 26.996C10.431 27.0346 10.26 26.7839 10.3489 26.5596C10.7471 25.5518 11.1071 24.2089 11.2151 22.9841C9.837 21.5013 9 19.5604 9 17.4387C9 12.7781 13.0297 9 18 9C22.9703 9 27 12.7781 27 17.4387ZM14.625 17.4387C14.625 17.1189 14.5065 16.8123 14.2955 16.5862C14.0845 16.3601 13.7984 16.2331 13.5 16.2331C13.2016 16.2331 12.9155 16.3601 12.7045 16.5862C12.4935 16.8123 12.375 17.1189 12.375 17.4387C12.375 17.7584 12.4935 18.065 12.7045 18.2911C12.9155 18.5172 13.2016 18.6442 13.5 18.6442C13.7984 18.6442 14.0845 18.5172 14.2955 18.2911C14.5065 18.065 14.625 17.7584 14.625 17.4387V17.4387ZM19.125 17.4387C19.125 17.1189 19.0065 16.8123 18.7955 16.5862C18.5845 16.3601 18.2984 16.2331 18 16.2331C17.7016 16.2331 17.4155 16.3601 17.2045 16.5862C16.9935 16.8123 16.875 17.1189 16.875 17.4387C16.875 17.7584 16.9935 18.065 17.2045 18.2911C17.4155 18.5172 17.7016 18.6442 18 18.6442C18.2984 18.6442 18.5845 18.5172 18.7955 18.2911C19.0065 18.065 19.125 17.7584 19.125 17.4387V17.4387ZM22.5 18.6442C22.7984 18.6442 23.0845 18.5172 23.2955 18.2911C23.5065 18.065 23.625 17.7584 23.625 17.4387C23.625 17.1189 23.5065 16.8123 23.2955 16.5862C23.0845 16.3601 22.7984 16.2331 22.5 16.2331C22.2016 16.2331 21.9155 16.3601 21.7045 16.5862C21.4935 16.8123 21.375 17.1189 21.375 17.4387C21.375 17.7584 21.4935 18.065 21.7045 18.2911C21.9155 18.5172 22.2016 18.6442 22.5 18.6442V18.6442Z" fill="#2247AF"/>
</g>
</g>
<defs>
<filter id="filter0_b_267_1241" x="-5" y="-5" width="46" height="46" filterUnits="userSpaceOnUse" color-interpolation-filters="sRGB">
<feFlood flood-opacity="0" result="BackgroundImageFix"/>
<feGaussianBlur in="BackgroundImage" stdDeviation="2.5"/>
<feComposite in2="SourceAlpha" operator="in" result="effect1_backgroundBlur_267_1241"/>
<feBlend mode="normal" in="SourceGraphic" in2="effect1_backgroundBlur_267_1241" result="shape"/>
</filter>
<clipPath id="clip0_267_1241">
<rect width="19" height="19" fill="white" transform="translate(8.5 8.5)"/>
</clipPath>
</defs>
</svg>
