<svg width="32" height="32" viewBox="0 0 32 32" fill="none" xmlns="http://www.w3.org/2000/svg">
<g filter="url(#filter0_b_226_795)">
<rect width="32" height="32" rx="10" fill="#EFF6FF"/>
<g clip-path="url(#clip0_226_795)">
<path d="M8.24839 14.6059C8.28094 14.6059 8.31391 14.6021 8.34709 14.5942C8.57263 14.54 8.71144 14.3132 8.65726 14.0876C8.57494 13.7458 8.53336 13.3959 8.53336 13.0475C8.53336 10.9767 10.1378 9.29166 12.1097 9.29166C14.1504 9.29166 15.6458 10.7134 15.6658 12.6722C15.6683 12.9026 15.8554 13.0878 16.0858 13.0878C16.3162 13.0878 16.5033 12.9024 16.5058 12.6722C16.526 10.7136 18.0216 9.29166 20.0621 9.29166C22.0343 9.29166 23.6387 10.9765 23.6387 13.0475C23.6387 13.3909 23.5985 13.7348 23.519 14.0702C23.4654 14.2958 23.6051 14.5221 23.8308 14.5757C24.0559 14.628 24.2827 14.4898 24.3363 14.2638C24.4306 13.8652 24.4787 13.456 24.4787 13.0475C24.4787 10.5134 22.4973 8.45166 20.0621 8.45166C18.2421 8.45166 16.7725 9.37419 16.0858 10.8047C15.3993 9.37419 13.9299 8.45166 12.1097 8.45166C9.6745 8.45166 7.69336 10.5132 7.69336 13.0475C7.69336 13.462 7.74292 13.8781 7.84057 14.2842C7.88677 14.4768 8.05876 14.6059 8.24839 14.6059Z" fill="#2247AF" stroke="#2247AF"/>
<path d="M21.5254 16.9119L16.0853 22.3259L10.682 16.9478C10.5176 16.7846 10.2519 16.7849 10.0879 16.9493C9.92456 17.1137 9.92519 17.3798 10.0894 17.5434L15.7892 23.2163C15.8713 23.2978 15.9782 23.3385 16.0855 23.3385C16.1928 23.3385 16.2999 23.2978 16.3818 23.2163L22.118 17.5075C22.2822 17.3439 22.2831 17.0778 22.1195 16.9134C21.9552 16.7489 21.6898 16.7481 21.5254 16.9119Z" fill="#2247AF" stroke="#2247AF"/>
<path d="M25.5549 15.2665V15.265H25.5545C25.4564 15.1854 25.3331 15.1359 25.1969 15.1359C25.061 15.1359 24.9379 15.1854 24.8401 15.265H18.7207C18.6228 15.1854 18.4995 15.1359 18.3637 15.1359C18.0487 15.1359 17.7941 15.3906 17.7941 15.7054C17.7941 15.7169 17.7969 15.7274 17.7975 15.7388L16.1572 17.9173L13.5967 12.8135C13.6091 12.7666 13.6179 12.7186 13.6179 12.6679C13.6179 12.3538 13.3629 12.0986 13.0486 12.0986C12.734 12.0986 12.479 12.3538 12.479 12.6679C12.479 12.6824 12.4824 12.6961 12.4835 12.7104L10.5613 15.265H6.95163C6.85356 15.1854 6.7305 15.1359 6.59463 15.1359C6.27942 15.1359 6.0249 15.3906 6.0249 15.7054C6.0249 16.02 6.27942 16.2749 6.59463 16.2749C6.75318 16.2749 6.8964 16.2096 6.99972 16.105H10.7709C10.903 16.105 11.0273 16.0431 11.1067 15.9374L12.977 13.4515L15.545 18.5706C15.5278 18.6252 15.5159 18.6821 15.5159 18.7424C15.5159 19.0568 15.7706 19.3117 16.0854 19.3117C16.4 19.3117 16.6553 19.0568 16.6553 18.7424C16.6553 18.7151 16.6509 18.6891 16.6473 18.6628L18.4521 16.2657C18.5749 16.2463 18.6852 16.1896 18.7688 16.1048H24.7922C24.8953 16.2094 25.0385 16.2747 25.1971 16.2747C25.5123 16.2747 25.7662 16.0198 25.7662 15.7052C25.766 15.5275 25.7649 15.3709 25.5549 15.2665Z" fill="#2247AF" stroke="#2247AF"/>
</g>
</g>
<defs>
<filter id="filter0_b_226_795" x="-5" y="-5" width="42" height="42" filterUnits="userSpaceOnUse" color-interpolation-filters="sRGB">
<feFlood flood-opacity="0" result="BackgroundImageFix"/>
<feGaussianBlur in="BackgroundImage" stdDeviation="2.5"/>
<feComposite in2="SourceAlpha" operator="in" result="effect1_backgroundBlur_226_795"/>
<feBlend mode="normal" in="SourceGraphic" in2="effect1_backgroundBlur_226_795" result="shape"/>
</filter>
<clipPath id="clip0_226_795">
<rect width="21" height="21" fill="white" transform="translate(5.5 5.5)"/>
</clipPath>
</defs>
</svg>
