<svg width="16" height="15" viewBox="0 0 16 15" fill="none" xmlns="http://www.w3.org/2000/svg">
<path d="M11.3995 0.70059C11.8484 0.251892 12.4571 -0.00011717 13.0918 4.08682e-08C13.7265 0.000117252 14.3351 0.252352 14.7838 0.701215C15.2325 1.15008 15.4845 1.7588 15.4844 2.39347C15.4843 3.02814 15.232 3.63677 14.7832 4.08547L13.8669 5.00044L14.1957 5.32918C14.6056 5.73935 14.8358 6.2955 14.8358 6.87537C14.8358 7.45524 14.6056 8.01139 14.1957 8.42157L12.8007 9.81777C12.6834 9.93512 12.5242 10.0011 12.3582 10.0011C12.1923 10.0011 12.0331 9.93512 11.9158 9.81777C11.7984 9.70041 11.7325 9.54125 11.7325 9.37528C11.7325 9.20932 11.7984 9.05015 11.9158 8.9328L13.312 7.53785C13.4875 7.36207 13.5861 7.1238 13.5861 6.87537C13.5861 6.62694 13.4875 6.38867 13.312 6.2129L12.9832 5.88416L5.53974 13.3276C5.3136 13.5536 5.03802 13.7239 4.73476 13.8251L1.30614 14.9676C1.19612 15.0041 1.07812 15.0093 0.965325 14.9826C0.852532 14.9558 0.74939 14.8983 0.667427 14.8163C0.585464 14.7344 0.52791 14.6312 0.501197 14.5184C0.474485 14.4056 0.479666 14.2876 0.516163 14.1776L1.65862 10.749C1.75982 10.4457 1.93013 10.1702 2.15611 9.94401L11.3995 0.70059Z" fill="#2247AF"/>
</svg>
