<svg width="105" height="56" viewBox="0 0 105 56" fill="none" xmlns="http://www.w3.org/2000/svg">
<rect x="0.5" y="0.5" width="104" height="55" rx="7.5" fill="white" stroke="#E8ECF4"/>
<path d="M43.42 30.4656L42.5972 33.537L39.5901 33.6006C38.6914 31.9338 38.1816 30.0266 38.1816 28C38.1816 26.0403 38.6582 24.1922 39.5031 22.5649H39.5037L42.1809 23.0558L43.3537 25.7169C43.1082 26.4325 42.9744 27.2007 42.9744 28C42.9745 28.8675 43.1317 29.6987 43.42 30.4656Z" fill="#FBBB00"/>
<path d="M61.6116 25.7922C61.7474 26.5071 61.8181 27.2455 61.8181 28C61.8181 28.8461 61.7292 29.6715 61.5597 30.4676C60.9844 33.1767 59.4811 35.5422 57.3987 37.2163L57.398 37.2156L54.026 37.0436L53.5487 34.0643C54.9305 33.2539 56.0104 31.9857 56.5793 30.4676H50.2598V25.7922H56.6715H61.6116Z" fill="#518EF8"/>
<path d="M57.3976 37.2158L57.3983 37.2164C55.373 38.8444 52.8002 39.8184 49.9996 39.8184C45.4989 39.8184 41.586 37.3028 39.5898 33.6009L43.4197 30.4658C44.4178 33.1294 46.9872 35.0256 49.9996 35.0256C51.2944 35.0256 52.5074 34.6755 53.5483 34.0645L57.3976 37.2158Z" fill="#28B446"/>
<path d="M57.5432 18.9027L53.7146 22.0371C52.6374 21.3637 51.364 20.9747 49.9997 20.9747C46.9192 20.9747 44.3016 22.9578 43.3536 25.7169L39.5036 22.565H39.5029C41.4698 18.7728 45.4321 16.1819 49.9997 16.1819C52.8672 16.1819 55.4964 17.2033 57.5432 18.9027Z" fill="#F14336"/>
</svg>
