<svg width="17" height="18" viewBox="0 0 17 18" fill="none" xmlns="http://www.w3.org/2000/svg">
<path d="M1.71301 1.22255H15.5244C16.0794 1.22255 16.5317 1.67486 16.5317 2.22986V16.0412C16.5317 16.5962 16.0794 17.0485 15.5244 17.0485H1.71301C1.15801 17.0485 0.705704 16.5962 0.705704 16.0412V2.22986C0.705704 1.67486 1.15801 1.22255 1.71301 1.22255ZM15.5244 16.9976C16.0521 16.9976 16.4808 16.5689 16.4808 16.0412V2.22986C16.4808 1.70214 16.0521 1.27346 15.5244 1.27346H1.71301C1.18529 1.27346 0.756615 1.70214 0.756615 2.22986V16.0412C0.756615 16.5689 1.18529 16.9976 1.71301 16.9976H15.5244Z" stroke="#414042" stroke-width="0.930939"/>
<path d="M2.76561 4.99657L3.22641 5.06234C3.22737 5.05566 3.23095 5.04947 3.23662 5.04521C4.80186 3.87142 6.66172 3.2516 8.61913 3.2516C10.5765 3.2516 12.4364 3.87142 14.0016 5.04521C14.0072 5.04942 14.0108 5.0556 14.0117 5.06195L14.0117 5.06234C14.0127 5.06902 14.0109 5.07572 14.0069 5.08101L14.0069 5.08113L11.4153 8.52885L11.4153 8.5289C11.4068 8.5402 11.3909 8.54231 11.3799 8.53404L11.3797 8.53394H5.85852C5.85561 8.53611 5.8532 8.53722 5.85117 8.53788C5.84895 8.53861 5.84641 8.53905 5.84361 8.53905C5.83925 8.53905 5.83505 8.53802 5.83163 8.53635C5.8287 8.53492 5.8258 8.53281 5.82276 8.52877L3.23141 5.0813C3.2314 5.08129 3.23139 5.08128 3.23138 5.08127C3.22733 5.07586 3.22548 5.06889 3.22648 5.06189L2.76561 4.99657ZM2.76561 4.99657C2.74733 5.12557 2.78095 5.25661 2.85919 5.3608L14.2811 4.673C12.6353 3.43865 10.6773 2.78613 8.61913 2.78613C6.56095 2.78613 4.603 3.43865 2.95712 4.673C2.85293 4.75124 2.78402 4.86758 2.76561 4.99657ZM11.0404 8.24199L11.4013 8.46282L11.6555 8.12464L13.6625 5.45446L13.9589 5.06018L13.5481 4.78714C12.0845 3.8143 10.3898 3.30251 8.61913 3.30251C6.84844 3.30251 5.15378 3.8143 3.69014 4.78714L3.27935 5.06018L3.57571 5.45446L5.58275 8.12464L5.83695 8.46282L6.1978 8.24199C6.7994 7.87383 7.46918 7.65098 8.17203 7.58451L8.59367 7.54463V7.1211V5.6248C8.59367 5.61072 8.60504 5.59935 8.61913 5.59935C8.63321 5.59935 8.64458 5.61072 8.64458 5.6248V7.1211V7.54463L9.06622 7.58451C9.76907 7.65098 10.4388 7.87383 11.0404 8.24199Z" stroke="#414042" stroke-width="0.930939"/>
</svg>
