<svg width="46" height="46" viewBox="0 0 46 46" fill="none" xmlns="http://www.w3.org/2000/svg">
<rect width="45.2567" height="45.2567" rx="9.05134" fill="#2247AF"/>
<path d="M19.6191 31.635C19.4848 31.5783 19.3732 31.4785 19.3019 31.3514C19.2306 31.2242 19.2037 31.077 19.2254 30.9328L20.4198 23.1562H17.2501C17.1496 23.1589 17.0498 23.1385 16.9585 23.0966C16.8671 23.0546 16.7866 22.9922 16.7232 22.9142C16.6598 22.8362 16.6152 22.7447 16.5927 22.6467C16.5703 22.5487 16.5707 22.4469 16.5938 22.3491L18.5626 13.8178C18.5972 13.671 18.6814 13.5406 18.8009 13.4485C18.9204 13.3565 19.068 13.3085 19.2188 13.3125H25.7813C25.8794 13.3122 25.9762 13.3338 26.0648 13.3758C26.1534 13.4178 26.2314 13.4792 26.2932 13.5553C26.3558 13.6323 26.4002 13.7225 26.4229 13.8191C26.4457 13.9157 26.4462 14.0163 26.4244 14.1131L25.2891 19.2187H28.4063C28.5293 19.2185 28.6499 19.2528 28.7543 19.3178C28.8588 19.3828 28.9428 19.4758 28.9969 19.5862C29.044 19.6923 29.0621 19.8088 29.0494 19.9241C29.0367 20.0394 28.9937 20.1492 28.9248 20.2425L20.3935 31.3987C20.3359 31.4842 20.2589 31.5549 20.1688 31.6051C20.0787 31.6552 19.9781 31.6835 19.8751 31.6875C19.7873 31.6859 19.7005 31.6681 19.6191 31.635V31.635Z" fill="white"/>
</svg>
