<svg width="38" height="38" viewBox="0 0 38 38" fill="none" xmlns="http://www.w3.org/2000/svg">
<g filter="url(#filter0_b_226_897)">
<rect width="38" height="38" rx="10" fill="#EFF6FF"/>
<path d="M20.2539 11.3728C20.6699 10.943 21.1672 10.6003 21.7169 10.3646C22.2667 10.1289 22.8578 10.0051 23.4559 10.0002C24.054 9.99525 24.647 10.1094 25.2006 10.3361C25.7541 10.5627 26.2569 10.8972 26.6799 11.3201C27.1028 11.7431 27.4373 12.2459 27.6639 12.7994C27.8906 13.353 28.0047 13.946 27.9998 14.5441C27.9949 15.1422 27.8711 15.7333 27.6354 16.2831C27.3997 16.8328 27.057 17.3301 26.6272 17.7461L17.6932 26.68C16.8481 27.5252 15.7018 28 14.5066 28C13.3114 28 12.1651 27.5252 11.32 26.68C10.4748 25.8349 10 24.6886 10 23.4934C10 22.2982 10.4748 21.1519 11.32 20.3068L20.2539 11.3728V11.3728ZM25.8377 12.1623C25.2019 11.5267 24.3396 11.1696 23.4406 11.1696C22.5415 11.1696 21.6793 11.5267 21.0435 12.1623L16.9707 16.234L21.7649 21.0282L25.8377 16.9565C26.1526 16.6418 26.4023 16.2681 26.5728 15.8568C26.7432 15.4455 26.8309 15.0046 26.8309 14.5594C26.8309 14.1142 26.7432 13.6734 26.5728 13.2621C26.4023 12.8508 26.1526 12.4771 25.8377 12.1623V12.1623ZM17.6932 23.657C17.5885 23.5523 17.4465 23.4935 17.2985 23.4935C17.1504 23.4935 17.0084 23.5523 16.9037 23.657L15.2286 25.3321C15.1338 25.427 15.0212 25.5022 14.8974 25.5536C14.7735 25.6049 14.6407 25.6313 14.5066 25.6313C14.3725 25.6313 14.2397 25.6049 14.1158 25.5536C13.992 25.5022 13.8794 25.427 13.7846 25.3321C13.707 25.2528 13.6075 25.1985 13.4987 25.1762C13.39 25.1539 13.2771 25.1646 13.1746 25.207C13.072 25.2494 12.9845 25.3215 12.9232 25.4141C12.862 25.5066 12.8298 25.6154 12.8309 25.7263C12.8309 25.8006 12.8457 25.8741 12.8745 25.9426C12.9033 26.011 12.9454 26.073 12.9984 26.125C13.3996 26.5245 13.9428 26.7485 14.509 26.7478C15.0751 26.7472 15.6178 26.522 16.0181 26.1217L17.6932 24.4465C17.7979 24.3418 17.8567 24.1998 17.8567 24.0518C17.8567 23.9037 17.7979 23.7617 17.6932 23.657V23.657Z" fill="#2247AF"/>
</g>
<defs>
<filter id="filter0_b_226_897" x="-5" y="-5" width="48" height="48" filterUnits="userSpaceOnUse" color-interpolation-filters="sRGB">
<feFlood flood-opacity="0" result="BackgroundImageFix"/>
<feGaussianBlur in="BackgroundImage" stdDeviation="2.5"/>
<feComposite in2="SourceAlpha" operator="in" result="effect1_backgroundBlur_226_897"/>
<feBlend mode="normal" in="SourceGraphic" in2="effect1_backgroundBlur_226_897" result="shape"/>
</filter>
</defs>
</svg>
