<svg width="36" height="36" viewBox="0 0 36 36" fill="none" xmlns="http://www.w3.org/2000/svg">
<g filter="url(#filter0_b_226_886)">
<rect width="36" height="36" rx="10" fill="#EFF6FF"/>
<g clip-path="url(#clip0_226_886)">
<path d="M21.466 17.6048L21.5021 17.6103C21.5104 17.6116 21.5207 17.6124 21.5334 17.6124C21.5915 17.6124 21.6488 17.5921 21.6947 17.5513C21.6947 17.5512 21.6948 17.5512 21.6949 17.5512L25.6691 13.999C25.7193 13.954 25.7487 13.8898 25.75 13.8227C25.7509 13.7548 25.7235 13.69 25.6753 13.644L25.6751 13.6437L23.2465 11.3174L23.2461 11.3171C23.1588 11.2331 23.0227 11.2269 22.9266 11.3045C22.9265 11.3046 22.9264 11.3046 22.9263 11.3047L18.7702 14.6862L18.7696 14.6866C18.7175 14.7288 18.685 14.7921 18.681 14.8612C18.6775 14.9294 18.703 14.996 18.7507 15.044L18.7512 15.0444L21.2229 17.5403L21.466 17.6048ZM21.466 17.6048L21.4298 17.6099M21.466 17.6048L21.4298 17.6099M21.4298 17.6099C21.3543 17.6205 21.2793 17.5971 21.223 17.5404L21.4298 17.6099ZM19.4965 14.7194L19.2826 14.8934L19.4767 15.0893L21.3036 16.9335L21.4708 17.1022L21.6478 16.944L24.9506 13.992L25.152 13.8119L24.9569 13.625L23.2264 11.9673L23.0669 11.8145L22.8956 11.9539L19.4965 14.7194Z" fill="#2247AF" stroke="#2247AF" stroke-width="0.5"/>
<path d="M18.3782 25.671C18.3733 25.671 18.3683 25.671 18.3644 25.671L16.9551 25.6278C15.7995 25.5928 14.6057 25.5554 13.4334 25.5412C13.1019 25.5358 12.7679 25.5687 12.4151 25.6007C12.12 25.6282 11.8263 25.6548 11.5307 25.6627C11.1893 25.6725 10.8543 25.6356 10.6324 25.612C10.5616 25.6041 10.5021 25.5982 10.4568 25.5948C10.265 25.5815 10.0987 25.4575 10.0313 25.277C9.96391 25.098 10.0072 24.8953 10.143 24.7575L17.8267 17.001L17.7175 16.6296C17.6516 16.4033 17.7554 16.1628 17.965 16.0545C18.176 15.9463 18.4313 16.0034 18.5769 16.1883L20.3778 18.4861C20.4595 18.5904 20.4954 18.7227 20.4782 18.8545C20.0935 21.7568 18.5474 23.5671 15.5211 24.5991C16.0135 24.6124 16.5035 24.6287 16.9865 24.6429L18.3929 24.6852C18.6645 24.6936 18.878 24.9199 18.8716 25.1909C18.8622 25.4595 18.6433 25.671 18.3782 25.671ZM18.513 17.7054L11.6079 24.6759C11.8465 24.6656 12.0851 24.6434 12.3232 24.6213C12.5853 24.5972 12.8539 24.5721 13.1269 24.5623C13.1712 24.4634 13.2489 24.3773 13.3542 24.3252C13.4044 24.3001 13.4521 24.2715 13.5018 24.243C13.6454 24.1589 13.8083 24.0639 14.0099 24.0148C17.3973 23.1918 19.0423 21.6658 19.4722 18.9303L18.513 17.7054Z" fill="#2247AF" stroke="#2247AF" stroke-width="0.5"/>
<path d="M22.7676 26.0382C22.5089 26.0382 22.2909 25.836 22.2772 25.5743C22.2619 25.3028 22.4695 25.0716 22.7396 25.0553L25.2095 24.9166C25.4786 24.8984 25.7122 25.1099 25.728 25.38C25.7432 25.6511 25.5356 25.8827 25.2646 25.8985L22.7952 26.0372C22.7863 26.0377 22.7774 26.0382 22.7676 26.0382Z" fill="#2247AF"/>
<path d="M21.3958 25.5107H19.4758C19.3417 25.5107 19.2339 25.4031 19.2339 25.2688C19.2339 25.1348 19.3418 25.0269 19.4758 25.0269H21.3958C21.5297 25.0269 21.6377 25.1348 21.6377 25.2688C21.6377 25.4027 21.5297 25.5107 21.3958 25.5107Z" fill="#2247AF" stroke="#2247AF" stroke-width="0.5"/>
</g>
</g>
<defs>
<filter id="filter0_b_226_886" x="-5" y="-5" width="46" height="46" filterUnits="userSpaceOnUse" color-interpolation-filters="sRGB">
<feFlood flood-opacity="0" result="BackgroundImageFix"/>
<feGaussianBlur in="BackgroundImage" stdDeviation="2.5"/>
<feComposite in2="SourceAlpha" operator="in" result="effect1_backgroundBlur_226_886"/>
<feBlend mode="normal" in="SourceGraphic" in2="effect1_backgroundBlur_226_886" result="shape"/>
</filter>
<clipPath id="clip0_226_886">
<rect width="16" height="16" fill="white" transform="translate(10 10)"/>
</clipPath>
</defs>
</svg>
