<svg width="20" height="20" viewBox="0 0 20 20" fill="none" xmlns="http://www.w3.org/2000/svg">
<rect width="20" height="20" rx="6" fill="#EFF6FF"/>
<path d="M11.0605 14.1006C10.9043 14.1689 10.7187 14.0957 10.6504 13.9346L9.99609 12.4062C9.56641 12.4004 9.21875 12.0547 9.21875 11.625C9.21875 11.193 9.56797 10.8438 10 10.8438C10.432 10.8438 10.7812 11.1934 10.7812 11.625C10.7812 11.8301 10.6982 12.0156 10.5664 12.1547L11.2256 13.6904C11.2949 13.8496 11.2187 14.0313 11.0605 14.1006ZM13.75 14.75H12.6518C12.0215 15.5135 11.0684 16 10 16C8.93164 16 7.97852 15.5135 7.34766 14.75H6.25C5.56152 14.75 5 14.1885 5 13.5V7.25C5 6.56152 5.56152 6 6.25 6H13.75C14.4385 6 15 6.56152 15 7.25V13.5C15 14.1885 14.4395 14.75 13.75 14.75ZM10 10.0625C8.62148 10.0625 7.5 11.184 7.5 12.5625C7.5 13.941 8.62148 15.0625 10 15.0625C11.3785 15.0625 12.5 13.941 12.5 12.5625C12.5 11.184 11.3789 10.0625 10 10.0625Z" fill="#2247AF"/>
</svg>
