<svg width="33" height="32" viewBox="0 0 33 32" fill="none" xmlns="http://www.w3.org/2000/svg">
<path d="M16.8063 8C15.699 8 14.637 8.43986 13.8541 9.22283C13.0711 10.0058 12.6313 11.0677 12.6313 12.175C12.6313 13.2823 13.0711 14.3442 13.8541 15.1272C14.637 15.9101 15.699 16.35 16.8063 16.35C17.9135 16.35 18.9755 15.9101 19.7584 15.1272C20.5414 14.3442 20.9813 13.2823 20.9813 12.175C20.9813 11.0677 20.5414 10.0058 19.7584 9.22283C18.9755 8.43986 17.9135 8 16.8063 8ZM11.5969 17.3938C11.322 17.3927 11.0496 17.4458 10.7953 17.5502C10.541 17.6546 10.3099 17.8082 10.115 18.0021C9.92023 18.1961 9.76562 18.4266 9.66008 18.6804C9.55453 18.9342 9.50014 19.2064 9.5 19.4813C9.5 21.2462 10.3694 22.577 11.7284 23.4444C13.0665 24.2971 14.8701 24.7 16.8063 24.7C18.7424 24.7 20.546 24.2971 21.8841 23.4444C23.2431 22.5781 24.1125 21.2462 24.1125 19.4813C24.1125 18.9276 23.8926 18.3966 23.5011 18.0052C23.1096 17.6137 22.5786 17.3938 22.025 17.3938H11.5969V17.3938Z" fill="#7B6F72"/>
</svg>
