<svg width="20" height="20" viewBox="0 0 20 20" fill="none" xmlns="http://www.w3.org/2000/svg">
<rect width="20" height="20" rx="6" fill="#EFF6FF"/>
<path d="M11.6667 9.61858V6.83638C11.6667 6.55117 11.55 6.27671 11.3389 6.0776L10.3889 5.15738C10.3375 5.10749 10.2764 5.06791 10.2092 5.0409C10.142 5.0139 10.07 5 9.99722 5C9.92446 5 9.85242 5.0139 9.78521 5.0409C9.718 5.06791 9.65695 5.10749 9.60556 5.15738L8.66111 6.07222C8.45 6.27671 8.33333 6.55117 8.33333 6.83638V7.46601H6.11111C5.5 7.46601 5 7.95034 5 8.54229V13.9237C5 14.5157 5.5 15 6.11111 15H13.8889C14.5 15 15 14.5157 15 13.9237V10.6949C15 10.1029 14.5 9.61858 13.8889 9.61858H11.6667ZM7.22222 13.9237H6.11111V12.8474H7.22222V13.9237ZM7.22222 11.7711H6.11111V10.6949H7.22222V11.7711ZM7.22222 9.61858H6.11111V8.54229H7.22222V9.61858ZM10.5556 13.9237H9.44444V12.8474H10.5556V13.9237ZM10.5556 11.7711H9.44444V10.6949H10.5556V11.7711ZM10.5556 9.61858H9.44444V8.54229H10.5556V9.61858ZM10.5556 7.46601H9.44444V6.38972H10.5556V7.46601ZM13.8889 13.9237H12.7778V12.8474H13.8889V13.9237ZM13.8889 11.7711H12.7778V10.6949H13.8889V11.7711Z" fill="#2247AF"/>
</svg>
