<svg width="20" height="20" viewBox="0 0 20 20" fill="none" xmlns="http://www.w3.org/2000/svg">
<rect width="20" height="20" rx="6" fill="#EFF6FF"/>
<path d="M7.75 6C7.8163 6 7.87989 6.02634 7.92678 6.07322C7.97366 6.12011 8 6.1837 8 6.25V6.5H12V6.25C12 6.1837 12.0263 6.12011 12.0732 6.07322C12.1201 6.02634 12.1837 6 12.25 6C12.3163 6 12.3799 6.02634 12.4268 6.07322C12.4737 6.12011 12.5 6.1837 12.5 6.25V6.5H13C13.2652 6.5 13.5196 6.60536 13.7071 6.79289C13.8946 6.98043 14 7.23478 14 7.5V13C14 13.2652 13.8946 13.5196 13.7071 13.7071C13.5196 13.8946 13.2652 14 13 14H7C6.73478 14 6.48043 13.8946 6.29289 13.7071C6.10536 13.5196 6 13.2652 6 13V8.5H14V8H6V7.5C6 7.23478 6.10536 6.98043 6.29289 6.79289C6.48043 6.60536 6.73478 6.5 7 6.5H7.5V6.25C7.5 6.1837 7.52634 6.12011 7.57322 6.07322C7.62011 6.02634 7.6837 6 7.75 6V6Z" fill="#2247AF"/>
</svg>
