<svg width="20" height="20" viewBox="0 0 20 20" fill="none" xmlns="http://www.w3.org/2000/svg">
<rect width="20" height="20" rx="6" fill="#EFF6FF"/>
<path d="M14.793 9.91807L10.2495 5.10951C10.2168 5.0748 10.1779 5.04726 10.1352 5.02846C10.0924 5.00967 10.0465 5 10.0002 5C9.9539 5 9.90804 5.00967 9.86526 5.02846C9.82249 5.04726 9.78363 5.0748 9.75091 5.10951L5.20738 9.91807C5.07501 10.0583 5 10.2487 5 10.4473C5 10.8597 5.31658 11.195 5.70596 11.195H6.18469V14.6262C6.18469 14.8329 6.34243 15 6.53768 15H9.29424V12.3831H10.5297V15H13.4627C13.658 15 13.8157 14.8329 13.8157 14.6262V11.195H14.2944C14.482 11.195 14.6618 11.1167 14.7941 10.9753C15.0688 10.6833 15.0688 10.2101 14.793 9.91807V9.91807Z" fill="#2247AF"/>
</svg>
