<svg width="32" height="32" viewBox="0 0 32 32" fill="none" xmlns="http://www.w3.org/2000/svg">
<g filter="url(#filter0_b_267_1227)">
<rect width="32" height="32" rx="10" fill="#EFF6FF"/>
<path d="M21.5 18.5H9.5L5.5 22.5V6.5C5.5 6.23478 5.60536 5.98043 5.79289 5.79289C5.98043 5.60536 6.23478 5.5 6.5 5.5H21.5C21.7652 5.5 22.0196 5.60536 22.2071 5.79289C22.3946 5.98043 22.5 6.23478 22.5 6.5V17.5C22.5 17.7652 22.3946 18.0196 22.2071 18.2071C22.0196 18.3946 21.7652 18.5 21.5 18.5ZM26.5 12.5V26.5L22.5 22.5H11.5C11.2348 22.5 10.9804 22.3946 10.7929 22.2071C10.6054 22.0196 10.5 21.7652 10.5 21.5V20.5H24.5V11.5H25.5C25.7652 11.5 26.0196 11.6054 26.2071 11.7929C26.3946 11.9804 26.5 12.2348 26.5 12.5ZM11.69 7.5C10.82 7.5 10.12 7.7 9.58 8.09C9.06 8.5 8.8 9.07 8.81 9.86L8.82 9.89H10.75C10.76 9.59 10.85 9.36 11.03 9.2C11.2152 9.04644 11.4495 8.96479 11.69 8.97C12 8.97 12.26 9.07 12.44 9.25C12.62 9.44 12.7 9.7 12.7 10C12.7 10.32 12.63 10.59 12.47 10.82C12.33 11.05 12.12 11.25 11.86 11.41C11.35 11.75 11 12.05 10.81 12.32C10.61 12.58 10.5 13 10.5 13.5H12.5C12.5 13.19 12.54 12.94 12.63 12.76C12.72 12.58 12.89 12.4 13.14 12.24C13.59 12 13.96 11.71 14.25 11.31C14.54 10.91 14.69 10.5 14.69 10C14.69 9.24 14.42 8.63 13.88 8.18C13.35 7.73 12.62 7.5 11.69 7.5ZM10.5 14.5V16.5H12.5V14.5H10.5ZM16.5 16.5H18.5V14.5H16.5V16.5ZM16.5 7.5V13.5H18.5V7.5H16.5Z" fill="#2247AF"/>
</g>
<defs>
<filter id="filter0_b_267_1227" x="-5" y="-5" width="42" height="42" filterUnits="userSpaceOnUse" color-interpolation-filters="sRGB">
<feFlood flood-opacity="0" result="BackgroundImageFix"/>
<feGaussianBlur in="BackgroundImage" stdDeviation="2.5"/>
<feComposite in2="SourceAlpha" operator="in" result="effect1_backgroundBlur_267_1227"/>
<feBlend mode="normal" in="SourceGraphic" in2="effect1_backgroundBlur_267_1227" result="shape"/>
</filter>
</defs>
</svg>
