<svg width="32" height="32" viewBox="0 0 32 32" fill="none" xmlns="http://www.w3.org/2000/svg">
<path d="M16 26L15.75 23H15.5C13.1333 23 11.125 22.175 9.475 20.525C7.825 18.875 7 16.8667 7 14.5C7 12.1333 7.825 10.125 9.475 8.475C11.125 6.825 13.1333 6 15.5 6C16.6833 6 17.7873 6.22067 18.812 6.662C19.8373 7.104 20.7377 7.71233 21.513 8.487C22.2877 9.26233 22.8957 10.1623 23.337 11.187C23.779 12.2123 24 13.3167 24 14.5C24 17.0333 23.2417 19.304 21.725 21.312C20.2083 23.3207 18.3 24.8833 16 26ZM15.475 19.975C15.7583 19.975 16 19.875 16.2 19.675C16.4 19.475 16.5 19.2333 16.5 18.95C16.5 18.6667 16.4 18.425 16.2 18.225C16 18.025 15.7583 17.925 15.475 17.925C15.1917 17.925 14.95 18.025 14.75 18.225C14.55 18.425 14.45 18.6667 14.45 18.95C14.45 19.2333 14.55 19.475 14.75 19.675C14.95 19.875 15.1917 19.975 15.475 19.975ZM14.75 16.8H16.25C16.25 16.3 16.3 15.95 16.4 15.75C16.5 15.55 16.8167 15.1833 17.35 14.65C17.65 14.35 17.9 14.025 18.1 13.675C18.3 13.325 18.4 12.95 18.4 12.55C18.4 11.7 18.1127 11.0623 17.538 10.637C16.9627 10.2123 16.2833 10 15.5 10C14.7667 10 14.15 10.204 13.65 10.612C13.15 11.0207 12.8 11.5167 12.6 12.1L14 12.65C14.0833 12.3667 14.2417 12.0873 14.475 11.812C14.7083 11.5373 15.05 11.4 15.5 11.4C15.95 11.4 16.2877 11.525 16.513 11.775C16.7377 12.025 16.85 12.3 16.85 12.6C16.85 12.8833 16.7667 13.1373 16.6 13.362C16.4333 13.5873 16.2333 13.8167 16 14.05C15.4167 14.55 15.0627 14.9457 14.938 15.237C14.8127 15.529 14.75 16.05 14.75 16.8Z" fill="#7B6F72"/>
</svg>
